# Blender 4.0.1
# www.blender.org
o body23_model0.007
v 31.858177 28.172737 103.520447
v 31.867054 29.648209 103.505814
v 31.631134 28.192894 103.560577
v 31.409760 28.248577 103.597870
v 31.199566 28.339153 103.631332
v 31.005455 28.461746 103.660233
v 30.832222 28.613377 103.683838
v 30.684191 28.790207 103.701599
v 30.565441 28.988400 103.712929
v 30.478369 29.202719 103.717728
v 30.425137 29.427937 103.715813
v 30.406944 29.658337 103.707260
v 30.425039 29.888496 103.692192
v 30.478222 30.112705 103.670975
v 30.565296 30.325394 103.644287
v 30.683952 30.521423 103.612701
v 30.831936 30.695568 103.576935
v 31.005119 30.844032 103.537926
v 31.199184 30.963024 103.496590
v 31.409378 31.049761 103.454018
v 31.630753 31.101408 103.411255
v 31.857746 31.117393 103.369247
v 32.084736 31.097279 103.329117
v 32.306160 31.041553 103.291824
v 32.516354 30.950975 103.258415
v 32.710464 30.828432 103.229477
v 32.883698 30.676800 103.205902
v 33.031731 30.499966 103.188095
v 33.150433 30.301775 103.176773
v 33.237549 30.087456 103.171967
v 33.290833 29.862240 103.173889
v 33.308975 29.631792 103.182426
v 33.290878 29.401680 103.197556
v 33.237698 29.177473 103.218719
v 33.150623 28.964785 103.245407
v 33.031967 28.768753 103.276993
v 32.883938 28.594608 103.312798
v 32.710800 28.446144 103.351822
v 32.516735 28.327103 103.393097
v 32.306545 28.240368 103.435684
v 32.085167 28.188770 103.478455
v -19.455744 28.813391 105.055679
v -20.766432 29.481216 105.031830
v -19.575985 28.616255 105.052368
v -19.367567 29.026848 105.056877
v -19.313663 29.251438 105.055969
v -19.295328 29.481600 105.052940
v -22.162271 29.933424 104.883698
v -22.216177 29.708832 104.884613
v -22.234512 29.478672 104.887589
v -22.216177 29.248562 104.892677
v -22.162271 29.024111 104.899681
v -22.074047 28.810799 104.908371
v -21.953857 28.613903 104.918587
v -21.803905 28.438702 104.930115
v -21.628513 28.288944 104.942642
v -21.431952 28.168415 104.955795
v -21.219070 28.079998 104.969330
v -20.994816 28.026623 104.982910
v -20.764896 28.008768 104.996155
v -20.535023 28.027056 105.008728
v -20.310768 28.080912 105.020447
v -20.097889 28.169712 105.030869
v -19.901279 28.290625 105.039795
v -19.725887 28.440769 105.047035
v -19.313663 29.711712 105.047859
v -19.367567 29.936207 105.040901
v -19.455744 30.149521 105.032158
v -19.575985 30.346367 105.021942
v -19.725887 30.521568 105.010414
v -19.901279 30.671375 104.997940
v -20.097889 30.791857 104.984734
v -20.310768 30.880272 104.971191
v -20.535023 30.933649 104.957611
v -20.764896 30.951504 104.944412
v -20.994816 30.933216 104.931793
v -21.219070 30.879360 104.920135
v -21.431952 30.790562 104.909714
v -21.628513 30.669647 104.900780
v -21.803905 30.519554 104.893539
v -21.953857 30.344015 104.888153
v -22.074047 30.146927 104.884895
v 19.455744 30.149521 105.032158
v 20.766432 29.481216 105.031830
v 19.575985 30.346367 105.021942
v 19.367567 29.936207 105.040901
v 19.313663 29.711712 105.047859
v 19.295328 29.481600 105.052940
v 22.162271 29.024111 104.899681
v 22.216177 29.248562 104.892677
v 22.234512 29.478672 104.887589
v 22.216177 29.708832 104.884613
v 22.162271 29.933424 104.883698
v 22.074047 30.146927 104.884895
v 21.953857 30.344015 104.888153
v 21.803905 30.519554 104.893539
v 21.628513 30.669647 104.900780
v 21.431952 30.790562 104.909714
v 21.219070 30.879360 104.920135
v 20.994816 30.933216 104.931793
v 20.764896 30.951504 104.944412
v 20.535023 30.933649 104.957611
v 20.310768 30.880272 104.971191
v 20.097889 30.791857 104.984734
v 19.901279 30.671375 104.997940
v 19.725887 30.521568 105.010414
v 19.313663 29.251438 105.055969
v 19.367567 29.026848 105.056877
v 19.455744 28.813391 105.055679
v 19.575985 28.616255 105.052368
v 19.725887 28.440769 105.047035
v 19.901279 28.290625 105.039795
v 20.097889 28.169712 105.030869
v 20.310768 28.080912 105.020447
v 20.535023 28.027056 105.008728
v 20.764896 28.008768 104.996155
v 20.994816 28.026623 104.982910
v 21.219070 28.079998 104.969330
v 21.431952 28.168415 104.955795
v 21.628513 28.288944 104.942642
v 21.803905 28.438702 104.930115
v 21.953857 28.613903 104.918587
v 22.074047 28.810799 104.908371
v -31.867054 29.648209 103.505814
v -32.710800 28.446144 103.351822
v -32.516735 28.327103 103.393097
v -32.306545 28.240368 103.435684
v -32.085167 28.188770 103.478455
v -31.858177 28.172737 103.520447
v -31.409378 31.049761 103.454018
v -31.630753 31.101408 103.411255
v -31.857746 31.117393 103.369247
v -32.084736 31.097279 103.329117
v -32.306160 31.041553 103.291824
v -32.516354 30.950975 103.258415
v -32.710464 30.828432 103.229477
v -32.883698 30.676800 103.205902
v -33.031731 30.499966 103.188095
v -33.150433 30.301775 103.176773
v -33.237549 30.087456 103.171967
v -33.290833 29.862240 103.173889
v -33.308975 29.631792 103.182426
v -33.290878 29.401680 103.197556
v -33.237698 29.177473 103.218719
v -33.150623 28.964785 103.245407
v -33.031967 28.768753 103.276993
v -32.883938 28.594608 103.312798
v -31.631134 28.192894 103.560577
v -31.409760 28.248577 103.597870
v -31.199566 28.339153 103.631332
v -31.005455 28.461746 103.660233
v -30.832222 28.613377 103.683838
v -30.684191 28.790207 103.701599
v -30.565441 28.988400 103.712929
v -30.478369 29.202719 103.717728
v -30.425137 29.427937 103.715813
v -30.406944 29.658337 103.707260
v -30.425039 29.888496 103.692192
v -30.478222 30.112705 103.670975
v -30.565296 30.325394 103.644287
v -30.683952 30.521423 103.612701
v -30.831936 30.695568 103.576935
v -31.005119 30.844032 103.537926
v -31.199184 30.963024 103.496590
vn 0.1369 -0.0411 0.9897
vn 0.1371 -0.0000 0.9906
vn 0.1293 -0.0411 0.9908
vn 0.1232 -0.0391 0.9916
vn 0.1175 -0.0372 0.9924
vn 0.1117 -0.0333 0.9932
vn 0.1076 -0.0294 0.9938
vn 0.1037 -0.0255 0.9943
vn 0.0999 -0.0195 0.9948
vn 0.0978 -0.0137 0.9951
vn 0.0958 -0.0059 0.9954
vn 0.0958 -0.0000 0.9954
vn 0.0958 0.0059 0.9954
vn 0.0977 0.0137 0.9951
vn 0.0999 0.0196 0.9948
vn 0.1037 0.0254 0.9943
vn 0.1076 0.0293 0.9938
vn 0.1117 0.0333 0.9932
vn 0.1175 0.0372 0.9924
vn 0.1232 0.0391 0.9916
vn 0.1292 0.0411 0.9908
vn 0.1369 0.0411 0.9897
vn 0.1429 0.0411 0.9889
vn 0.1487 0.0391 0.9881
vn 0.1547 0.0372 0.9873
vn 0.1605 0.0333 0.9865
vn 0.1662 0.0293 0.9857
vn 0.1704 0.0255 0.9850
vn 0.1742 0.0196 0.9845
vn 0.1761 0.0137 0.9843
vn 0.1780 0.0059 0.9840
vn 0.1780 -0.0000 0.9840
vn 0.1780 -0.0059 0.9840
vn 0.1761 -0.0137 0.9843
vn 0.1742 -0.0196 0.9845
vn 0.1704 -0.0254 0.9851
vn 0.1662 -0.0293 0.9857
vn 0.1605 -0.0333 0.9865
vn 0.1547 -0.0372 0.9873
vn 0.1488 -0.0391 0.9881
vn 0.1429 -0.0411 0.9889
vn 0.0059 -0.0196 0.9998
vn -0.0315 -0.0003 0.9995
vn 0.0019 -0.0254 0.9997
vn 0.0078 -0.0137 0.9999
vn 0.0098 -0.0059 0.9999
vn 0.0098 -0.0000 1.0000
vn -0.0704 0.0137 0.9974
vn -0.0724 0.0058 0.9974
vn -0.0724 -0.0000 0.9974
vn -0.0724 -0.0058 0.9974
vn -0.0704 -0.0137 0.9974
vn -0.0685 -0.0196 0.9975
vn -0.0646 -0.0254 0.9976
vn -0.0607 -0.0294 0.9977
vn -0.0567 -0.0333 0.9978
vn -0.0509 -0.0372 0.9980
vn -0.0450 -0.0392 0.9982
vn -0.0372 -0.0411 0.9985
vn -0.0313 -0.0411 0.9987
vn -0.0255 -0.0411 0.9988
vn -0.0195 -0.0391 0.9990
vn -0.0117 -0.0372 0.9992
vn -0.0078 -0.0333 0.9994
vn -0.0019 -0.0293 0.9996
vn 0.0098 0.0059 0.9999
vn 0.0078 0.0137 0.9999
vn 0.0058 0.0196 0.9998
vn 0.0020 0.0254 0.9997
vn -0.0019 0.0293 0.9996
vn -0.0078 0.0333 0.9994
vn -0.0118 0.0371 0.9992
vn -0.0195 0.0391 0.9990
vn -0.0254 0.0411 0.9988
vn -0.0313 0.0411 0.9987
vn -0.0372 0.0411 0.9985
vn -0.0451 0.0392 0.9982
vn -0.0509 0.0372 0.9980
vn -0.0567 0.0332 0.9978
vn -0.0606 0.0293 0.9977
vn -0.0646 0.0255 0.9976
vn -0.0685 0.0196 0.9975
vn -0.0058 0.0196 0.9998
vn 0.0313 -0.0000 0.9995
vn -0.0020 0.0254 0.9997
vn -0.0078 0.0137 0.9999
vn -0.0098 0.0059 0.9999
vn -0.0098 -0.0000 1.0000
vn 0.0704 -0.0137 0.9974
vn 0.0724 -0.0058 0.9974
vn 0.0724 -0.0000 0.9974
vn 0.0724 0.0058 0.9974
vn 0.0704 0.0137 0.9974
vn 0.0685 0.0196 0.9975
vn 0.0646 0.0255 0.9976
vn 0.0606 0.0293 0.9977
vn 0.0567 0.0332 0.9978
vn 0.0509 0.0372 0.9980
vn 0.0451 0.0392 0.9982
vn 0.0372 0.0411 0.9985
vn 0.0313 0.0411 0.9987
vn 0.0254 0.0411 0.9988
vn 0.0195 0.0391 0.9990
vn 0.0118 0.0371 0.9992
vn 0.0078 0.0333 0.9994
vn 0.0019 0.0293 0.9996
vn -0.0098 -0.0059 0.9999
vn -0.0078 -0.0137 0.9999
vn -0.0059 -0.0196 0.9998
vn -0.0019 -0.0254 0.9997
vn 0.0019 -0.0293 0.9996
vn 0.0078 -0.0333 0.9994
vn 0.0117 -0.0372 0.9992
vn 0.0195 -0.0391 0.9990
vn 0.0255 -0.0411 0.9988
vn 0.0313 -0.0411 0.9987
vn 0.0372 -0.0411 0.9985
vn 0.0450 -0.0392 0.9982
vn 0.0509 -0.0372 0.9980
vn 0.0567 -0.0333 0.9978
vn 0.0607 -0.0294 0.9977
vn 0.0646 -0.0254 0.9976
vn 0.0685 -0.0196 0.9975
vn -0.1371 -0.0000 0.9906
vn -0.1605 -0.0333 0.9865
vn -0.1547 -0.0372 0.9873
vn -0.1488 -0.0391 0.9881
vn -0.1429 -0.0411 0.9889
vn -0.1369 -0.0411 0.9897
vn -0.1232 0.0391 0.9916
vn -0.1292 0.0411 0.9908
vn -0.1369 0.0411 0.9897
vn -0.1429 0.0411 0.9889
vn -0.1487 0.0391 0.9881
vn -0.1547 0.0372 0.9873
vn -0.1605 0.0333 0.9865
vn -0.1662 0.0293 0.9857
vn -0.1704 0.0255 0.9850
vn -0.1742 0.0196 0.9845
vn -0.1761 0.0137 0.9843
vn -0.1780 0.0059 0.9840
vn -0.1780 -0.0000 0.9840
vn -0.1780 -0.0059 0.9840
vn -0.1761 -0.0137 0.9843
vn -0.1742 -0.0196 0.9845
vn -0.1704 -0.0254 0.9851
vn -0.1662 -0.0293 0.9857
vn -0.1293 -0.0411 0.9908
vn -0.1232 -0.0391 0.9916
vn -0.1175 -0.0372 0.9924
vn -0.1117 -0.0333 0.9932
vn -0.1076 -0.0294 0.9938
vn -0.1037 -0.0255 0.9943
vn -0.0999 -0.0195 0.9948
vn -0.0978 -0.0137 0.9951
vn -0.0958 -0.0059 0.9954
vn -0.0958 -0.0000 0.9954
vn -0.0958 0.0059 0.9954
vn -0.0977 0.0137 0.9951
vn -0.0999 0.0196 0.9948
vn -0.1037 0.0254 0.9943
vn -0.1076 0.0293 0.9938
vn -0.1117 0.0333 0.9932
vn -0.1175 0.0372 0.9924
vt -1.518769 -3.205250
vt 0.500001 0.499996
vt -2.073625 -2.843934
vt -2.565391 -2.400886
vt -2.980540 -1.885313
vt -3.310598 -1.311267
vt -3.547084 -0.692730
vt -3.684479 -0.045155
vt -3.717299 0.616041
vt -3.646909 1.274545
vt -3.474685 1.914028
vt -3.205237 2.518767
vt -2.843195 3.073066
vt -2.399244 3.564502
vt -1.884102 3.980689
vt -1.310739 4.311607
vt -0.692118 4.547267
vt -0.044180 4.683919
vt 0.617117 4.717836
vt 1.275410 4.648527
vt 1.914328 4.475561
vt 2.518763 4.205225
vt 3.073618 3.843926
vt 3.565393 3.400862
vt 3.980525 2.885314
vt 4.310591 2.311260
vt 4.547069 1.692748
vt 4.684473 1.045165
vt 4.717300 0.383977
vt 4.646910 -0.274527
vt 4.474679 -0.914009
vt 4.205238 -1.518765
vt 3.843188 -2.073047
vt 3.399238 -2.564485
vt 2.884095 -2.980671
vt 2.310724 -3.311589
vt 1.692103 -3.547257
vt 1.044165 -3.683927
vt 0.382868 -3.717834
vt -0.275425 -3.648559
vt -0.914334 -3.475568
s 1
f 1/1/1 2/2/2 3/3/3
f 3/3/3 2/2/2 4/4/4
f 2/2/2 5/5/5 4/4/4
f 2/2/2 6/6/6 5/5/5
f 2/2/2 7/7/7 6/6/6
f 8/8/8 7/7/7 2/2/2
f 9/9/9 8/8/8 2/2/2
f 9/9/9 2/2/2 10/10/10
f 10/10/10 2/2/2 11/11/11
f 2/2/2 12/12/12 11/11/11
f 2/2/2 13/13/13 12/12/12
f 2/2/2 14/14/14 13/13/13
f 2/2/2 15/15/15 14/14/14
f 2/2/2 16/16/16 15/15/15
f 2/2/2 17/17/17 16/16/16
f 2/2/2 18/18/18 17/17/17
f 2/2/2 19/19/19 18/18/18
f 2/2/2 20/20/20 19/19/19
f 2/2/2 21/21/21 20/20/20
f 2/2/2 22/22/22 21/21/21
f 2/2/2 23/23/23 22/22/22
f 2/2/2 24/24/24 23/23/23
f 2/2/2 25/25/25 24/24/24
f 2/2/2 26/26/26 25/25/25
f 2/2/2 27/27/27 26/26/26
f 2/2/2 28/28/28 27/27/27
f 2/2/2 29/29/29 28/28/28
f 2/2/2 30/30/30 29/29/29
f 31/31/31 30/30/30 2/2/2
f 31/31/31 2/2/2 32/32/32
f 2/2/2 33/33/33 32/32/32
f 2/2/2 34/34/34 33/33/33
f 2/2/2 35/35/35 34/34/34
f 2/2/2 36/36/36 35/35/35
f 2/2/2 37/37/37 36/36/36
f 2/2/2 38/38/38 37/37/37
f 2/2/2 39/39/39 38/38/38
f 2/2/2 40/40/40 39/39/39
f 2/2/2 41/41/41 40/40/40
f 1/1/1 41/41/41 2/2/2
f 42/9/42 43/2/43 44/8/44
f 42/9/42 45/10/45 43/2/43
f 46/11/46 43/2/43 45/10/45
f 47/12/47 43/2/43 46/11/46
f 43/2/43 48/30/48 49/31/49
f 50/32/50 43/2/43 49/31/49
f 50/32/50 51/33/51 43/2/43
f 43/2/43 51/33/51 52/34/52
f 43/2/43 52/34/52 53/35/53
f 43/2/43 53/35/53 54/36/54
f 43/2/43 54/36/54 55/37/55
f 43/2/43 55/37/55 56/38/56
f 43/2/43 56/38/56 57/39/57
f 58/40/58 43/2/43 57/39/57
f 58/40/58 59/41/59 43/2/43
f 60/1/60 43/2/43 59/41/59
f 60/1/60 61/3/61 43/2/43
f 43/2/43 61/3/61 62/4/62
f 43/2/43 62/4/62 63/5/63
f 43/2/43 63/5/63 64/6/64
f 43/2/43 64/6/64 65/7/65
f 43/2/43 65/7/65 44/8/44
f 47/12/47 66/13/66 43/2/43
f 66/13/66 67/14/67 43/2/43
f 68/15/68 43/2/43 67/14/67
f 68/15/68 69/16/69 43/2/43
f 43/2/43 69/16/69 70/17/70
f 43/2/43 70/17/70 71/18/71
f 43/2/43 71/18/71 72/19/72
f 43/2/43 72/19/72 73/20/73
f 43/2/43 73/20/73 74/21/74
f 75/22/75 43/2/43 74/21/74
f 75/22/75 76/23/76 43/2/43
f 77/24/77 43/2/43 76/23/76
f 77/24/77 78/25/78 43/2/43
f 43/2/43 78/25/78 79/26/79
f 43/2/43 79/26/79 80/27/80
f 43/2/43 80/27/80 81/28/81
f 43/2/43 81/28/81 82/29/82
f 43/2/43 82/29/82 48/30/48
f 83/15/83 84/2/84 85/16/85
f 83/15/83 86/14/86 84/2/84
f 87/13/87 84/2/84 86/14/86
f 88/12/88 84/2/84 87/13/87
f 84/2/84 89/34/89 90/33/90
f 91/32/91 84/2/84 90/33/90
f 91/32/91 92/31/92 84/2/84
f 84/2/84 92/31/92 93/30/93
f 84/2/84 93/30/93 94/29/94
f 84/2/84 94/29/94 95/28/95
f 84/2/84 95/28/95 96/27/96
f 84/2/84 96/27/96 97/26/97
f 84/2/84 97/26/97 98/25/98
f 99/24/99 84/2/84 98/25/98
f 99/24/99 100/23/100 84/2/84
f 101/22/101 84/2/84 100/23/100
f 101/22/101 102/21/102 84/2/84
f 84/2/84 102/21/102 103/20/103
f 84/2/84 103/20/103 104/19/104
f 84/2/84 104/19/104 105/18/105
f 84/2/84 105/18/105 106/17/106
f 84/2/84 106/17/106 85/16/85
f 88/12/88 107/11/107 84/2/84
f 107/11/107 108/10/108 84/2/84
f 109/9/109 84/2/84 108/10/108
f 109/9/109 110/8/110 84/2/84
f 84/2/84 110/8/110 111/7/111
f 84/2/84 111/7/111 112/6/112
f 84/2/84 112/6/112 113/5/113
f 84/2/84 113/5/113 114/4/114
f 84/2/84 114/4/114 115/3/115
f 116/1/116 84/2/84 115/3/115
f 116/1/116 117/41/117 84/2/84
f 118/40/118 84/2/84 117/41/117
f 118/40/118 119/39/119 84/2/84
f 84/2/84 119/39/119 120/38/120
f 84/2/84 120/38/120 121/37/121
f 84/2/84 121/37/121 122/36/122
f 84/2/84 122/36/122 123/35/123
f 84/2/84 123/35/123 89/34/89
f 124/2/124 125/38/125 126/39/126
f 124/2/124 126/39/126 127/40/127
f 124/2/124 127/40/127 128/41/128
f 129/1/129 124/2/124 128/41/128
f 124/2/124 130/20/130 131/21/131
f 124/2/124 131/21/131 132/22/132
f 124/2/124 132/22/132 133/23/133
f 124/2/124 133/23/133 134/24/134
f 124/2/124 134/24/134 135/25/135
f 124/2/124 135/25/135 136/26/136
f 124/2/124 136/26/136 137/27/137
f 124/2/124 137/27/137 138/28/138
f 124/2/124 138/28/138 139/29/139
f 124/2/124 139/29/139 140/30/140
f 141/31/141 124/2/124 140/30/140
f 141/31/141 142/32/142 124/2/124
f 124/2/124 142/32/142 143/33/143
f 124/2/124 143/33/143 144/34/144
f 124/2/124 144/34/144 145/35/145
f 124/2/124 145/35/145 146/36/146
f 124/2/124 146/36/146 147/37/147
f 124/2/124 147/37/147 125/38/125
f 129/1/129 148/3/148 124/2/124
f 148/3/148 149/4/149 124/2/124
f 124/2/124 149/4/149 150/5/150
f 124/2/124 150/5/150 151/6/151
f 124/2/124 151/6/151 152/7/152
f 153/8/153 124/2/124 152/7/152
f 154/9/154 124/2/124 153/8/153
f 154/9/154 155/10/155 124/2/124
f 155/10/155 156/11/156 124/2/124
f 124/2/124 156/11/156 157/12/157
f 124/2/124 157/12/157 158/13/158
f 124/2/124 158/13/158 159/14/159
f 124/2/124 159/14/159 160/15/160
f 124/2/124 160/15/160 161/16/161
f 124/2/124 161/16/161 162/17/162
f 124/2/124 162/17/162 163/18/163
f 124/2/124 163/18/163 164/19/164
f 124/2/124 164/19/164 130/20/130
