# Blender 4.0.1
# www.blender.org
o rbumpera
v 8.408208 20.216112 108.536697
v 8.369088 20.244480 108.680351
v 8.209104 20.243999 108.750290
v -8.408208 20.216112 108.536697
v -8.375521 20.244480 108.680351
v -8.414639 20.216112 108.536697
v -8.369088 20.244480 108.680351
v -8.209104 20.215536 108.537941
v -8.209104 20.243999 108.750290
v 0.000000 20.238575 108.751579
v 0.000000 20.208048 108.542976
v 8.209104 20.215536 108.537941
v 8.408257 20.005680 106.340729
v 8.209008 20.004383 106.341843
v 8.408208 19.933775 106.268539
v 8.209152 19.930752 106.267975
v 8.209296 19.767792 106.215889
v 0.000000 19.894224 106.278671
v 0.000000 19.743792 106.232117
v -8.209152 19.930752 106.267975
v -8.209296 19.767792 106.215889
v 0.000000 18.919008 106.264755
v 8.209583 18.922993 106.241898
v -8.209583 18.922993 106.241898
v -8.209681 18.798336 106.249443
v 0.000000 18.800112 106.274162
v 8.209681 18.798336 106.249443
v 8.351135 18.823631 106.248962
v 8.408208 18.923233 106.241615
v 8.408208 19.769329 106.216171
v -8.408208 19.769329 106.216171
v -8.408208 18.923233 106.241615
v -8.351135 18.823631 106.248962
v -8.357568 18.823631 106.248962
v -8.216112 18.798336 106.249443
v -8.414639 19.769329 106.216171
v -8.414639 18.923233 106.241615
v -8.414639 19.933775 106.268539
v -8.408208 19.933775 106.268539
v -8.408257 20.005680 106.340729
v -8.209008 20.004383 106.341843
v 0.000000 19.984177 106.370018
v -8.414639 20.005680 106.340729
v -8.215536 20.243999 108.750290
vn 0.0197 -0.9917 0.1271
vn 0.0353 -0.9864 0.1605
vn 0.0176 -0.9884 0.1507
vn -0.0098 -0.9908 0.1351
vn -0.0000 -0.9956 0.0939
vn -0.0000 -0.9897 0.1429
vn -0.0118 -0.9930 0.1177
vn -0.0098 -0.9923 0.1234
vn -0.0118 -0.9951 0.0979
vn -0.0000 -0.9903 0.1390
vn -0.0020 -0.9931 0.1174
vn 0.0098 -0.9923 0.1233
vn 0.0078 -0.9055 0.4243
vn 0.0059 -0.9055 0.4243
vn 0.0058 -0.5208 0.8537
vn 0.0036 -0.5211 0.8535
vn 0.0019 -0.1291 0.9916
vn -0.0038 -0.5207 0.8537
vn -0.0020 -0.1271 0.9919
vn -0.0039 -0.5208 0.8537
vn -0.0020 -0.1291 0.9916
vn -0.0016 0.0588 0.9983
vn -0.0000 0.0568 0.9984
vn -0.0000 0.0567 0.9984
vn -0.0000 0.0512 0.9987
vn -0.0039 0.0687 0.9976
vn 0.0001 0.0685 0.9977
vn -0.0019 0.0665 0.9978
vn -0.0019 0.0547 0.9985
vn -0.0000 -0.1332 0.9911
vn -0.0000 0.0501 0.9987
vn -0.0000 0.0432 0.9991
vn -0.0000 0.0261 0.9997
vn -0.0000 0.0587 0.9983
vn -0.0000 -0.5208 0.8537
vn -0.0020 -0.5210 0.8536
vn -0.0039 -0.9055 0.4244
vn -0.0059 -0.9054 0.4245
vn -0.0000 -0.9054 0.4246
vn -0.0000 -1.0000 -0.0064
vt 0.000845 0.079166
vt 0.005637 0.023739
vt 0.025026 0.000000
vt -0.047597 0.079166
vt 0.951558 -0.000004
vt -0.048442 -0.000004
vt -0.042805 0.023739
vt -0.023504 0.079101
vt -0.023416 0.000000
vt 1.094351 0.001093
vt 1.094303 0.079355
vt 0.024938 0.079101
vt 0.000051 0.585809
vt 0.024156 0.585947
vt 0.000022 0.626123
vt 0.024107 0.627214
vt 0.024070 0.680269
vt 1.093828 0.630256
vt 1.093667 0.678711
vt -0.024335 0.627214
vt -0.024372 0.680269
vt 1.093496 0.977577
vt 0.024042 0.974899
vt -0.024399 0.974899
vt -0.024407 0.999222
vt 1.093447 1.000000
vt 0.024035 0.999222
vt 0.006919 0.993767
vt 0.000012 0.974712
vt 0.000000 0.679616
vt -0.048442 0.679616
vt -0.048430 0.974712
vt -0.041523 0.993767
vt -0.048420 0.626123
vt -0.048391 0.585809
vt -0.024286 0.585947
vt 1.093769 0.585654
s 1
f 1/1/1 2/2/2 3/3/3
f 4/4/4 5/5/5 6/6/6
f 4/4/4 7/7/7 5/5/5
f 4/4/4 8/8/8 7/7/7
f 7/7/7 8/8/8 9/9/9
f 10/10/10 9/9/9 8/8/8
f 11/11/11 10/10/10 8/8/8
f 11/11/11 3/3/3 10/10/10
f 11/11/11 12/12/12 3/3/3
f 1/1/1 3/3/3 12/12/12
f 1/1/1 12/12/12 13/13/13
f 14/14/14 13/13/13 12/12/12
f 15/15/15 13/13/13 14/14/14
f 15/15/15 14/14/14 16/16/16
f 15/15/15 16/16/16 17/17/17
f 18/18/18 17/17/17 16/16/16
f 18/18/18 19/19/19 17/17/17
f 18/18/18 20/20/20 19/19/19
f 19/19/19 20/20/20 21/21/21
f 22/22/22 17/17/17 19/19/19
f 22/22/22 23/23/23 17/17/17
f 19/19/19 21/21/21 24/24/24
f 22/22/22 19/19/19 24/24/24
f 22/22/22 24/24/24 25/25/25
f 26/26/26 22/22/22 25/25/25
f 26/26/26 23/23/23 22/22/22
f 26/26/26 27/27/27 23/23/23
f 23/23/23 27/27/27 28/28/28
f 29/29/29 23/23/23 28/28/28
f 29/29/29 17/17/17 23/23/23
f 29/29/29 30/30/30 17/17/17
f 30/30/30 15/15/15 17/17/17
f 31/31/30 21/21/21 20/20/20
f 31/31/30 24/24/24 21/21/21
f 32/32/24 24/24/24 31/31/30
f 32/32/24 25/25/25 24/24/24
f 32/32/24 33/33/31 25/25/25
f 33/33/31 34/5/32 25/25/25
f 34/5/32 35/6/33 25/25/25
f 32/32/24 36/5/30 37/6/34
f 32/32/24 31/31/30 36/5/30
f 32/32/24 37/5/34 33/33/31
f 37/5/34 34/6/32 33/33/31
f 31/31/30 38/5/35 36/6/30
f 31/31/30 39/34/36 38/5/35
f 31/31/30 20/20/20 39/34/36
f 39/34/36 20/20/20 40/35/37
f 41/36/38 40/35/37 20/20/20
f 4/4/4 40/35/37 41/36/38
f 4/4/4 41/36/38 8/8/8
f 11/11/11 8/8/8 41/36/38
f 42/37/37 11/11/11 41/36/38
f 42/37/37 12/12/12 11/11/11
f 42/37/37 14/14/14 12/12/12
f 42/37/37 16/16/16 14/14/14
f 42/37/37 18/18/18 16/16/16
f 42/37/37 41/36/38 18/18/18
f 18/18/18 41/36/38 20/20/20
f 39/34/36 43/5/39 38/6/35
f 39/34/36 40/35/37 43/5/39
f 4/4/4 6/5/6 40/35/37
f 40/35/37 6/5/6 43/6/39
f 7/7/7 44/5/40 5/6/5
f 7/7/7 9/9/9 44/5/40
