# Blender 4.0.1
# www.blender.org
o cockpit1.001
v 24.088207 39.273808 25.721722
v 23.799747 38.341496 8.173437
v 23.910263 38.360989 25.779934
v 24.103163 39.254456 8.141830
v 24.238089 40.187847 25.664042
v 24.294365 40.166481 8.110937
v 24.384850 41.028969 8.281967
v 24.335207 41.122292 25.508154
v 24.315845 41.890320 8.530722
v 24.298992 42.055305 25.266579
v 24.112240 42.894081 24.938019
v 24.072605 42.797836 8.911848
v 23.757734 43.731121 24.266062
v 23.683165 43.704899 9.584778
v 23.013655 44.791237 22.773808
v 22.987215 44.790768 11.086409
v 22.552687 45.435764 21.172855
v 22.535042 45.436256 12.687916
v 22.307323 45.996197 16.931105
vn -0.9838 0.1795 0.0025
vn -0.9503 0.3113 -0.0009
vn -0.9814 0.1917 0.0059
vn -0.9659 0.2588 -0.0023
vn -0.9908 0.1353 -0.0022
vn -0.9874 0.1580 -0.0034
vn -0.9996 0.0276 -0.0030
vn -0.9992 0.0408 -0.0022
vn -0.9889 -0.1485 -0.0000
vn -0.9938 -0.1108 0.0001
vn -0.9616 -0.2743 0.0023
vn -0.9519 -0.3063 0.0044
vn -0.9012 -0.4335 0.0048
vn -0.9002 -0.4354 0.0046
vn -0.8216 -0.5701 0.0046
vn -0.8370 -0.5472 0.0019
vn -0.8219 -0.5697 0.0019
vn -0.8232 -0.5677 0.0017
vn -0.9212 -0.3890 0.0019
vt 0.996238 0.124958
vt 0.004006 0.000499
vt 0.999501 0.002976
vt 0.002253 0.122238
vt 0.992991 0.246925
vt 0.000500 0.243977
vt 0.023228 0.359076
vt 0.981741 0.371536
vt 0.045957 0.474175
vt 0.970507 0.496146
vt 0.942214 0.608009
vt 0.064889 0.595230
vt 0.913922 0.719886
vt 0.083822 0.716285
vt 0.829563 0.861394
vt 0.168745 0.861318
vt 0.739076 0.947441
vt 0.259232 0.947410
vt 0.499154 0.996276
s 1
f 1/1/1 2/2/2 3/3/3
f 1/1/1 4/4/4 2/2/2
f 5/5/5 4/4/4 1/1/1
f 5/5/5 6/6/6 4/4/4
f 5/5/5 7/7/7 6/6/6
f 8/8/8 7/7/7 5/5/5
f 8/8/8 9/9/9 7/7/7
f 10/10/10 9/9/9 8/8/8
f 11/11/11 9/9/9 10/10/10
f 11/11/11 12/12/12 9/9/9
f 13/13/13 12/12/12 11/11/11
f 13/13/13 14/14/14 12/12/12
f 15/15/15 14/14/14 13/13/13
f 15/15/15 16/16/16 14/14/14
f 17/17/17 16/16/16 15/15/15
f 17/17/17 18/18/18 16/16/16
f 19/19/19 18/18/18 17/17/17
